<svg xmlns="http://www.w3.org/2000/svg" width="300" height="100" viewBox="0 0 300 100" fill="transparent">
  <!-- Fondo blanco -->
  <rect width="100%" height="100%" fill="none" />
  
  <!-- Icono del mundo detallado -->
  <circle cx="50" cy="50" r="45" fill="#3498db" />
  <path d="M50 10c-22.092 0-40 17.908-40 40s17.908 40 40 40 40-17.908 40-40S72.092 10 50 10zm0 75c-19.882 0-36-16.118-36-36s16.118-36 36-36 36 16.118 36 36-16.118 36-36 36z" fill="#fff" />
  <circle cx="50" cy="50" r="30" fill="#3498db" />
  <path d="M50 20c-13.233 0-24 10.767-24 24s10.767 24 24 24 24-10.767 24-24S63.233 20 50 20zm0 44c-11.046 0-20-8.954-20-20s8.954-20 20-20 20 8.954 20 20-8.954 20-20 20z" fill="#fff" />
  
  <!-- Texto "JourneyJoy" -->
  <text x="110" y="58" font-family="Verdana, sans-serif" font-size="28" fill="#3498db">JourneyJoy</text>
</svg>
